# xmcd
#
# Track frame offsets:
# 150
# 21358
# 38752
# 58262
# 78475
# 96596
# 116065
# 136126
# 155905
# 179380
# 201803
# 218162
# 256176
#
# Disc length: 4432 seconds
#
#
# Revision: 6
# Processed by: cddbd v1.5.1PL0 Copyright (c) Steve Scherf et al.
# Submitted via: FreeRIP 2.941 
#
DISCID=be114e0d
DTITLE=Pino Daniele - Medina
DYEAR=2001
DGENRE=Blues
TTITLE0=Via Medina
TTITLE1=Evviva o'rre'
TTITLE2=Tempo di cambiare
TTITLE3=Sarà
TTITLE4=Senza 'e te
TTITLE5=Mareluna
TTITLE6=Lettera del cuore
TTITLE7=Acqua passata
TTITLE8=Galby
TTITLE9=Gente di frontiera
TTITLE10=Lacrima di sale
TTITLE11=Africa a Africa
TTITLE12=Data track
EXTD=YEAR: 2001
EXTT0=
EXTT1=
EXTT2=
EXTT3=
EXTT4=
EXTT5=
EXTT6=
EXTT7=
EXTT8=
EXTT9=
EXTT10=
EXTT11=
EXTT12=
PLAYORDER=
